<?xml version="1.0" standalone="no"?>
<!DOCTYPE svg PUBLIC "-//W3C//DTD SVG 20010904//EN"
 "http://www.w3.org/TR/2001/REC-SVG-20010904/DTD/svg10.dtd">
<svg version="1.0" xmlns="http://www.w3.org/2000/svg"
 width="512.000000pt" height="512.000000pt" viewBox="0 0 512.000000 512.000000"
 preserveAspectRatio="xMidYMid meet">
<metadata>
Created by potrace 1.11, written by Peter Selinger 2001-2013
</metadata>
<g transform="translate(0.000000,512.000000) scale(0.100000,-0.100000)"
fill="#000000" stroke="none">
<path d="M315 5106 c-84 -28 -117 -48 -179 -109 -71 -70 -92 -106 -115 -192
-14 -54 -16 -285 -15 -2250 1 -1205 4 -2206 8 -2225 3 -19 20 -63 37 -97 55
-114 160 -197 279 -222 41 -9 618 -11 2270 -9 l2215 3 65 32 c95 46 164 117
209 212 l26 56 0 2255 0 2255 -28 57 c-44 89 -116 161 -205 205 l-76 38 -2225
2 c-1817 1 -2233 -1 -2266 -11z"/>
</g>
</svg>
